<svg fill="none" xmlns="http://www.w3.org/2000/svg" viewBox="0 0 560 560"><g filter="url(#filter0_dd_2251_19638)"><path d="M40 388C40 379.163 47.1634 372 56 372H504C512.837 372 520 379.163 520 388V512C520 520.837 512.837 528 504 528H56C47.1635 528 40 520.837 40 512V388Z" fill="white" shape-rendering="crispEdges"></path><path d="M40 388C40 379.163 47.1634 372 56 372H504C512.837 372 520 379.163 520 388V436H40V388Z" fill="#FAFAFA"></path><g filter="url(#filter1_dd_2251_19638)"><path d="M48 388C48 383.582 51.5817 380 56 380H160C164.418 380 168 383.582 168 388V420C168 424.418 164.418 428 160 428H56C51.5817 428 48 424.418 48 420V388Z" fill="#FAFAFA" shape-rendering="crispEdges"></path><path d="M56 380.5H160C164.142 380.5 167.5 383.858 167.5 388V420C167.5 424.142 164.142 427.5 160 427.5H56C51.8579 427.5 48.5 424.142 48.5 420V388C48.5 383.858 51.8579 380.5 56 380.5Z" stroke="#296EF9" shape-rendering="crispEdges"></path><path d="M56 392C56 389.791 57.7909 388 60 388H84C86.2091 388 88 389.791 88 392V416C88 418.209 86.2091 420 84 420H60C57.7909 420 56 418.209 56 416V392Z" fill="#FAFAFA"></path><path d="M73.6663 395.667H66.9997C66.5576 395.667 66.1337 395.842 65.8212 396.155C65.5086 396.467 65.333 396.891 65.333 397.333V410.667C65.333 411.109 65.5086 411.532 65.8212 411.845C66.1337 412.158 66.5576 412.333 66.9997 412.333H76.9997C77.4417 412.333 77.8656 412.158 78.1782 411.845C78.4907 411.532 78.6663 411.109 78.6663 410.667V400.667M73.6663 395.667L78.6663 400.667M73.6663 395.667L73.6663 400.667L78.6663 400.667M75.333 404.833H68.6663M75.333 408.167H68.6663M70.333 401.5H68.6663" stroke="black" stroke-opacity="0.4" stroke-width="1.5" stroke-linecap="round" stroke-linejoin="round"></path><path d="M94.852 400V391.636H100.408V392.872H96.244V395.092H99.856V396.34H96.244V400H94.852ZM101.483 400V394.084H102.815V400H101.483ZM101.423 393.112V391.636H102.875V393.112H101.423ZM105.674 400.108C105.29 400.108 104.97 399.992 104.714 399.76C104.458 399.52 104.33 399.14 104.33 398.62V391.636H105.662V398.356C105.662 398.54 105.702 398.676 105.782 398.764C105.87 398.844 105.982 398.884 106.118 398.884C106.19 398.884 106.262 398.876 106.334 398.86C106.414 398.844 106.494 398.824 106.574 398.8V399.928C106.422 399.992 106.266 400.036 106.106 400.06C105.946 400.092 105.802 400.108 105.674 400.108ZM110.239 400.108C109.743 400.108 109.311 400.028 108.943 399.868C108.583 399.708 108.287 399.484 108.055 399.196C107.823 398.908 107.651 398.584 107.539 398.224C107.427 397.856 107.371 397.476 107.371 397.084C107.371 396.692 107.423 396.312 107.527 395.944C107.639 395.568 107.807 395.232 108.031 394.936C108.255 394.64 108.543 394.408 108.895 394.24C109.247 394.064 109.663 393.976 110.143 393.976C110.599 393.976 110.995 394.056 111.331 394.216C111.675 394.368 111.959 394.584 112.183 394.864C112.407 395.136 112.571 395.448 112.675 395.8C112.787 396.152 112.843 396.528 112.843 396.928C112.843 396.984 112.839 397.064 112.831 397.168C112.831 397.272 112.823 397.376 112.807 397.48H108.703C108.735 397.952 108.895 398.312 109.183 398.56C109.471 398.808 109.839 398.932 110.287 398.932C110.615 398.932 110.915 398.88 111.187 398.776C111.459 398.672 111.707 398.508 111.931 398.284L112.663 399.172C112.415 399.396 112.167 399.576 111.919 399.712C111.671 399.848 111.411 399.948 111.139 400.012C110.875 400.076 110.575 400.108 110.239 400.108ZM111.535 396.808C111.551 396.744 111.559 396.68 111.559 396.616C111.567 396.552 111.571 396.488 111.571 396.424C111.571 396.248 111.539 396.08 111.475 395.92C111.419 395.76 111.331 395.62 111.211 395.5C111.091 395.372 110.943 395.272 110.767 395.2C110.591 395.12 110.391 395.08 110.167 395.08C109.855 395.08 109.591 395.148 109.375 395.284C109.167 395.42 109.003 395.596 108.883 395.812C108.771 396.02 108.703 396.248 108.679 396.496H111.967L111.535 396.808ZM117.329 400V391.636H118.769L122.801 398.188H122.453V391.636H123.845V400H122.381L118.385 393.436H118.721V400H117.329ZM129.287 400L129.191 399.004V396.268C129.191 395.884 129.075 395.596 128.843 395.404C128.611 395.204 128.287 395.104 127.871 395.104C127.551 395.104 127.235 395.168 126.923 395.296C126.619 395.416 126.339 395.604 126.083 395.86L125.339 394.984C125.723 394.624 126.131 394.368 126.563 394.216C126.995 394.056 127.467 393.976 127.979 393.976C128.779 393.976 129.399 394.18 129.839 394.588C130.287 394.988 130.511 395.548 130.511 396.268V400H129.287ZM127.451 400.108C127.011 400.108 126.619 400.028 126.275 399.868C125.939 399.708 125.675 399.484 125.483 399.196C125.299 398.908 125.207 398.572 125.207 398.188C125.207 397.86 125.275 397.576 125.411 397.336C125.555 397.096 125.739 396.908 125.963 396.772C126.155 396.652 126.379 396.568 126.635 396.52C126.891 396.464 127.159 396.436 127.439 396.436H129.299V397.432H127.631C127.487 397.432 127.343 397.448 127.199 397.48C127.055 397.504 126.927 397.552 126.815 397.624C126.735 397.688 126.667 397.768 126.611 397.864C126.563 397.96 126.539 398.072 126.539 398.2C126.539 398.456 126.635 398.66 126.827 398.812C127.027 398.956 127.291 399.028 127.619 399.028C127.907 399.028 128.167 398.964 128.399 398.836C128.639 398.708 128.831 398.532 128.975 398.308C129.119 398.084 129.191 397.832 129.191 397.552L129.599 398.212C129.503 398.628 129.351 398.98 129.143 399.268C128.935 399.548 128.687 399.76 128.399 399.904C128.111 400.04 127.795 400.108 127.451 400.108ZM131.999 400V394.084H133.331V395.62L133.043 395.788C133.115 395.444 133.215 395.156 133.343 394.924C133.479 394.692 133.635 394.508 133.811 394.372C133.987 394.228 134.175 394.128 134.375 394.072C134.583 394.008 134.791 393.976 134.999 393.976C135.319 393.976 135.619 394.04 135.899 394.168C136.179 394.288 136.415 394.488 136.607 394.768C136.807 395.04 136.943 395.412 137.015 395.884L136.235 396.1C136.355 395.588 136.523 395.18 136.739 394.876C136.955 394.564 137.207 394.336 137.495 394.192C137.791 394.048 138.111 393.976 138.455 393.976C138.959 393.976 139.363 394.088 139.667 394.312C139.979 394.528 140.207 394.816 140.351 395.176C140.495 395.528 140.567 395.908 140.567 396.316V400H139.235V396.64C139.235 396.312 139.195 396.036 139.115 395.812C139.043 395.588 138.927 395.42 138.767 395.308C138.607 395.188 138.403 395.128 138.155 395.128C137.891 395.128 137.671 395.196 137.495 395.332C137.319 395.46 137.183 395.66 137.087 395.932C136.999 396.204 136.955 396.54 136.955 396.94V400H135.623V396.58C135.623 396.092 135.531 395.728 135.347 395.488C135.163 395.248 134.903 395.128 134.567 395.128C134.303 395.128 134.079 395.196 133.895 395.332C133.711 395.468 133.571 395.672 133.475 395.944C133.379 396.208 133.331 396.54 133.331 396.94V400H131.999ZM144.645 400.108C144.149 400.108 143.717 400.028 143.349 399.868C142.989 399.708 142.693 399.484 142.461 399.196C142.229 398.908 142.057 398.584 141.945 398.224C141.833 397.856 141.777 397.476 141.777 397.084C141.777 396.692 141.829 396.312 141.933 395.944C142.045 395.568 142.213 395.232 142.437 394.936C142.661 394.64 142.949 394.408 143.301 394.24C143.653 394.064 144.069 393.976 144.549 393.976C145.005 393.976 145.401 394.056 145.737 394.216C146.081 394.368 146.365 394.584 146.589 394.864C146.813 395.136 146.977 395.448 147.081 395.8C147.193 396.152 147.249 396.528 147.249 396.928C147.249 396.984 147.245 397.064 147.237 397.168C147.237 397.272 147.229 397.376 147.213 397.48H143.109C143.141 397.952 143.301 398.312 143.589 398.56C143.877 398.808 144.245 398.932 144.693 398.932C145.021 398.932 145.321 398.88 145.593 398.776C145.865 398.672 146.113 398.508 146.337 398.284L147.069 399.172C146.821 399.396 146.573 399.576 146.325 399.712C146.077 399.848 145.817 399.948 145.545 400.012C145.281 400.076 144.981 400.108 144.645 400.108ZM145.941 396.808C145.957 396.744 145.965 396.68 145.965 396.616C145.973 396.552 145.977 396.488 145.977 396.424C145.977 396.248 145.945 396.08 145.881 395.92C145.825 395.76 145.737 395.62 145.617 395.5C145.497 395.372 145.349 395.272 145.173 395.2C144.997 395.12 144.797 395.08 144.573 395.08C144.261 395.08 143.997 395.148 143.781 395.284C143.573 395.42 143.409 395.596 143.289 395.812C143.177 396.02 143.109 396.248 143.085 396.496H146.373L145.941 396.808Z" fill="black" fill-opacity="0.8"></path><path d="M94.948 416V407.636H97.444C98.348 407.636 99.036 407.836 99.508 408.236C99.988 408.636 100.228 409.224 100.228 410C100.228 410.776 99.988 411.372 99.508 411.788C99.028 412.196 98.34 412.4 97.444 412.4H95.992V416H94.948ZM95.992 411.464H97.336C97.912 411.464 98.36 411.348 98.68 411.116C99.008 410.876 99.172 410.508 99.172 410.012C99.172 409.524 99.012 409.164 98.692 408.932C98.38 408.7 97.928 408.584 97.336 408.584H95.992V411.464ZM101.593 416V407.636H103.909C105.277 407.636 106.337 408.008 107.089 408.752C107.841 409.488 108.217 410.532 108.217 411.884C108.217 413.212 107.845 414.232 107.101 414.944C106.357 415.648 105.289 416 103.897 416H101.593ZM102.649 415.028H103.801C104.513 415.028 105.117 414.924 105.613 414.716C106.117 414.5 106.497 414.16 106.753 413.696C107.017 413.224 107.149 412.608 107.149 411.848C107.149 411.088 107.017 410.472 106.753 410C106.497 409.52 106.125 409.168 105.637 408.944C105.157 408.72 104.577 408.608 103.897 408.608H102.649V415.028ZM109.772 416V407.636H115.256V408.584H110.828V411.26H114.668V412.208H110.828V416H109.772Z" fill="black" fill-opacity="0.4"></path><path d="M44 380C44 377.791 45.7909 376 48 376H56C58.2091 376 60 377.791 60 380V388C60 390.209 58.2091 392 56 392H48C45.7909 392 44 390.209 44 388V380Z" fill="#404040"></path><path d="M55 381L49 387M49 381L55 387" stroke="white" stroke-width="1.5" stroke-linecap="round" stroke-linejoin="round"></path></g><path d="M57.106 463V453.242H58.338V457.428H63.154V453.242H64.386V463H63.154V458.576H58.338V463H57.106ZM69.5343 463.112C68.8903 463.112 68.3116 462.963 67.7983 462.664C67.2943 462.356 66.8976 461.931 66.6083 461.39C66.3189 460.849 66.1743 460.233 66.1743 459.542C66.1743 458.851 66.3143 458.24 66.5943 457.708C66.8836 457.167 67.2803 456.747 67.7843 456.448C68.2976 456.14 68.8809 455.986 69.5343 455.986C70.1876 455.986 70.7616 456.14 71.2563 456.448C71.7603 456.747 72.1569 457.167 72.4463 457.708C72.7356 458.24 72.8803 458.851 72.8803 459.542C72.8803 460.233 72.7356 460.849 72.4463 461.39C72.1569 461.922 71.7603 462.342 71.2563 462.65C70.7523 462.958 70.1783 463.112 69.5343 463.112ZM69.5343 462.062C69.9729 462.062 70.3509 461.959 70.6683 461.754C70.9949 461.539 71.2469 461.245 71.4243 460.872C71.6016 460.489 71.6903 460.046 71.6903 459.542C71.6903 459.029 71.6016 458.585 71.4243 458.212C71.2469 457.829 70.9949 457.535 70.6683 457.33C70.3509 457.125 69.9729 457.022 69.5343 457.022C69.0863 457.022 68.6989 457.129 68.3723 457.344C68.0456 457.549 67.7936 457.839 67.6163 458.212C67.4389 458.585 67.3503 459.029 67.3503 459.542C67.3503 460.046 67.4389 460.489 67.6163 460.872C67.7936 461.245 68.0456 461.539 68.3723 461.754C68.6989 461.959 69.0863 462.062 69.5343 462.062ZM75.936 463L73.892 456.098H75.152L76.552 461.208L78.204 456.098H79.254L80.906 461.18L82.32 456.098H83.58L81.522 463H80.43L78.736 457.75L77.042 463H75.936ZM91.4874 463.112C90.974 463.112 90.5167 463.019 90.1154 462.832C89.7234 462.645 89.392 462.389 89.1214 462.062C88.8507 461.726 88.6454 461.343 88.5054 460.914C88.3654 460.485 88.2954 460.027 88.2954 459.542C88.2954 459.066 88.3654 458.613 88.5054 458.184C88.6454 457.755 88.8507 457.377 89.1214 457.05C89.392 456.714 89.7234 456.453 90.1154 456.266C90.5167 456.079 90.974 455.986 91.4874 455.986C92.1407 455.986 92.71 456.145 93.1954 456.462C93.69 456.779 94.054 457.265 94.2874 457.918L93.2374 458.324C93.1067 457.932 92.8967 457.615 92.6074 457.372C92.318 457.129 91.9447 457.008 91.4874 457.008C91.03 457.008 90.652 457.129 90.3534 457.372C90.0547 457.615 89.8307 457.927 89.6814 458.31C89.5414 458.693 89.4714 459.103 89.4714 459.542C89.4714 459.981 89.5414 460.396 89.6814 460.788C89.8307 461.171 90.0547 461.483 90.3534 461.726C90.652 461.959 91.03 462.076 91.4874 462.076C91.9447 462.076 92.318 461.959 92.6074 461.726C92.8967 461.483 93.1067 461.161 93.2374 460.76L94.2874 461.166C94.054 461.819 93.69 462.309 93.1954 462.636C92.71 462.953 92.1407 463.112 91.4874 463.112ZM100.399 463L100.315 461.614V458.674C100.315 458.142 100.166 457.731 99.8675 457.442C99.5781 457.153 99.1441 457.008 98.5655 457.008C98.1921 457.008 97.8421 457.087 97.5155 457.246C97.1888 457.395 96.8715 457.652 96.5635 458.016L95.7095 457.288C96.0921 456.84 96.5308 456.513 97.0255 456.308C97.5201 456.093 98.0615 455.986 98.6495 455.986C99.5548 455.986 100.255 456.219 100.749 456.686C101.244 457.153 101.491 457.815 101.491 458.674V463H100.399ZM98.1175 463.112C97.5948 463.112 97.1375 463.023 96.7455 462.846C96.3628 462.659 96.0641 462.403 95.8495 462.076C95.6441 461.749 95.5415 461.371 95.5415 460.942C95.5415 460.559 95.6161 460.237 95.7655 459.976C95.9241 459.705 96.1248 459.495 96.3675 459.346C96.6101 459.187 96.8855 459.08 97.1935 459.024C97.5108 458.959 97.8421 458.926 98.1875 458.926H100.427V459.822H98.3555C98.1501 459.822 97.9355 459.841 97.7115 459.878C97.4875 459.915 97.2915 459.995 97.1235 460.116C97.0021 460.209 96.9041 460.326 96.8295 460.466C96.7641 460.606 96.7315 460.769 96.7315 460.956C96.7315 461.32 96.8668 461.609 97.1375 461.824C97.4081 462.039 97.7721 462.146 98.2295 462.146C98.6121 462.146 98.9575 462.057 99.2655 461.88C99.5828 461.703 99.8348 461.46 100.021 461.152C100.217 460.835 100.315 460.48 100.315 460.088L100.805 460.592C100.749 461.087 100.6 461.525 100.357 461.908C100.115 462.291 99.8021 462.589 99.4195 462.804C99.0461 463.009 98.6121 463.112 98.1175 463.112ZM103.424 463V456.098H104.614V457.568L104.334 457.666C104.465 457.311 104.642 457.013 104.866 456.77C105.09 456.518 105.361 456.327 105.678 456.196C105.995 456.056 106.345 455.986 106.728 455.986C107.484 455.986 108.077 456.21 108.506 456.658C108.935 457.097 109.15 457.75 109.15 458.618V463H107.96V459.052C107.96 458.352 107.829 457.839 107.568 457.512C107.316 457.176 106.929 457.008 106.406 457.008C106.023 457.008 105.697 457.097 105.426 457.274C105.165 457.451 104.964 457.731 104.824 458.114C104.684 458.487 104.614 458.968 104.614 459.556V463H103.424ZM118.917 463.168C118.021 463.168 117.232 462.958 116.551 462.538C115.879 462.118 115.352 461.53 114.969 460.774C114.596 460.018 114.409 459.136 114.409 458.128C114.409 457.111 114.596 456.224 114.969 455.468C115.352 454.712 115.879 454.124 116.551 453.704C117.232 453.284 118.021 453.074 118.917 453.074C119.832 453.074 120.63 453.284 121.311 453.704C121.992 454.124 122.52 454.712 122.893 455.468C123.276 456.224 123.467 457.111 123.467 458.128C123.467 459.136 123.276 460.018 122.893 460.774C122.51 461.53 121.978 462.118 121.297 462.538C120.616 462.958 119.822 463.168 118.917 463.168ZM118.917 461.992C119.598 461.992 120.182 461.833 120.667 461.516C121.162 461.199 121.544 460.751 121.815 460.172C122.086 459.593 122.221 458.912 122.221 458.128C122.221 457.335 122.086 456.649 121.815 456.07C121.544 455.491 121.162 455.043 120.667 454.726C120.182 454.409 119.598 454.25 118.917 454.25C118.254 454.25 117.676 454.409 117.181 454.726C116.686 455.034 116.304 455.477 116.033 456.056C115.772 456.635 115.641 457.325 115.641 458.128C115.641 458.921 115.772 459.607 116.033 460.186C116.304 460.765 116.686 461.213 117.181 461.53C117.676 461.838 118.254 461.992 118.917 461.992ZM125.19 463V456.098H126.38V457.568L126.1 457.666C126.23 457.311 126.408 457.013 126.632 456.77C126.856 456.518 127.126 456.327 127.444 456.196C127.761 456.056 128.111 455.986 128.494 455.986C129.25 455.986 129.842 456.21 130.272 456.658C130.701 457.097 130.916 457.75 130.916 458.618V463H129.726V459.052C129.726 458.352 129.595 457.839 129.334 457.512C129.082 457.176 128.694 457.008 128.172 457.008C127.789 457.008 127.462 457.097 127.192 457.274C126.93 457.451 126.73 457.731 126.59 458.114C126.45 458.487 126.38 458.968 126.38 459.556V463H125.19ZM133.354 465.842L134.67 462.664L131.982 456.098H133.284L135.3 461.474L137.33 456.098H138.618L134.642 465.842H133.354ZM139.339 463L141.817 459.528L139.339 456.098H140.795L142.601 458.716L144.435 456.098H145.863L143.371 459.528L145.863 463H144.407L142.601 460.354L140.767 463H139.339ZM150.879 463V453.242H152.069V457.568L151.775 457.68C151.906 457.325 152.088 457.022 152.321 456.77C152.554 456.518 152.83 456.327 153.147 456.196C153.464 456.056 153.81 455.986 154.183 455.986C154.939 455.986 155.532 456.21 155.961 456.658C156.39 457.097 156.605 457.75 156.605 458.618V463H155.415V459.052C155.415 458.352 155.284 457.839 155.023 457.512C154.771 457.176 154.384 457.008 153.861 457.008C153.292 457.008 152.848 457.213 152.531 457.624C152.223 458.025 152.069 458.669 152.069 459.556V463H150.879ZM161.447 463.112C160.906 463.112 160.43 463.023 160.019 462.846C159.618 462.659 159.282 462.403 159.011 462.076C158.75 461.749 158.549 461.376 158.409 460.956C158.279 460.527 158.213 460.074 158.213 459.598C158.213 459.122 158.279 458.669 158.409 458.24C158.54 457.801 158.731 457.414 158.983 457.078C159.245 456.742 159.571 456.476 159.963 456.28C160.355 456.084 160.813 455.986 161.335 455.986C161.867 455.986 162.325 456.079 162.707 456.266C163.099 456.443 163.417 456.691 163.659 457.008C163.911 457.325 164.098 457.68 164.219 458.072C164.341 458.464 164.401 458.87 164.401 459.29C164.401 459.327 164.397 459.416 164.387 459.556C164.387 459.687 164.378 459.803 164.359 459.906H159.389C159.417 460.578 159.613 461.101 159.977 461.474C160.341 461.847 160.836 462.034 161.461 462.034C161.863 462.034 162.213 461.969 162.511 461.838C162.81 461.707 163.09 461.497 163.351 461.208L164.177 461.936C163.925 462.207 163.659 462.431 163.379 462.608C163.099 462.776 162.801 462.902 162.483 462.986C162.175 463.07 161.83 463.112 161.447 463.112ZM163.225 459.304C163.244 459.229 163.253 459.155 163.253 459.08C163.263 459.005 163.267 458.931 163.267 458.856C163.267 458.632 163.225 458.408 163.141 458.184C163.067 457.96 162.95 457.759 162.791 457.582C162.642 457.395 162.446 457.251 162.203 457.148C161.97 457.036 161.69 456.98 161.363 456.98C160.962 456.98 160.617 457.073 160.327 457.26C160.038 457.447 159.814 457.694 159.655 458.002C159.497 458.31 159.403 458.651 159.375 459.024H163.617L163.225 459.304ZM167.482 463.112C167.062 463.112 166.721 462.981 166.46 462.72C166.199 462.459 166.068 462.043 166.068 461.474V453.242H167.244V461.25C167.244 461.521 167.3 461.717 167.412 461.838C167.524 461.959 167.673 462.02 167.86 462.02C167.944 462.02 168.037 462.011 168.14 461.992C168.243 461.973 168.35 461.945 168.462 461.908V462.916C168.303 462.981 168.135 463.028 167.958 463.056C167.781 463.093 167.622 463.112 167.482 463.112ZM169.801 465.856V456.098H170.977V458.156L170.599 457.89C170.72 457.489 170.898 457.148 171.131 456.868C171.374 456.579 171.668 456.359 172.013 456.21C172.358 456.061 172.75 455.986 173.189 455.986C173.814 455.986 174.36 456.145 174.827 456.462C175.303 456.77 175.672 457.195 175.933 457.736C176.194 458.268 176.325 458.875 176.325 459.556C176.325 460.275 176.185 460.905 175.905 461.446C175.625 461.978 175.247 462.389 174.771 462.678C174.295 462.967 173.768 463.112 173.189 463.112C172.75 463.112 172.358 463.033 172.013 462.874C171.668 462.715 171.378 462.496 171.145 462.216C170.912 461.936 170.744 461.619 170.641 461.264L170.977 460.942V465.856H169.801ZM172.993 462.034C173.413 462.034 173.782 461.931 174.099 461.726C174.426 461.511 174.678 461.217 174.855 460.844C175.042 460.471 175.135 460.041 175.135 459.556C175.135 459.071 175.042 458.641 174.855 458.268C174.678 457.895 174.426 457.605 174.099 457.4C173.782 457.185 173.413 457.078 172.993 457.078C172.573 457.078 172.204 457.185 171.887 457.4C171.57 457.605 171.322 457.895 171.145 458.268C170.968 458.641 170.879 459.071 170.879 459.556C170.879 460.041 170.968 460.471 171.145 460.844C171.322 461.217 171.57 461.511 171.887 461.726C172.204 461.931 172.573 462.034 172.993 462.034ZM182.34 465.842L183.656 462.664L180.968 456.098H182.27L184.286 461.474L186.316 456.098H187.604L183.628 465.842H182.34ZM191.802 463.112C191.158 463.112 190.579 462.963 190.066 462.664C189.562 462.356 189.165 461.931 188.876 461.39C188.587 460.849 188.442 460.233 188.442 459.542C188.442 458.851 188.582 458.24 188.862 457.708C189.151 457.167 189.548 456.747 190.052 456.448C190.565 456.14 191.149 455.986 191.802 455.986C192.455 455.986 193.029 456.14 193.524 456.448C194.028 456.747 194.425 457.167 194.714 457.708C195.003 458.24 195.148 458.851 195.148 459.542C195.148 460.233 195.003 460.849 194.714 461.39C194.425 461.922 194.028 462.342 193.524 462.65C193.02 462.958 192.446 463.112 191.802 463.112ZM191.802 462.062C192.241 462.062 192.619 461.959 192.936 461.754C193.263 461.539 193.515 461.245 193.692 460.872C193.869 460.489 193.958 460.046 193.958 459.542C193.958 459.029 193.869 458.585 193.692 458.212C193.515 457.829 193.263 457.535 192.936 457.33C192.619 457.125 192.241 457.022 191.802 457.022C191.354 457.022 190.967 457.129 190.64 457.344C190.313 457.549 190.061 457.839 189.884 458.212C189.707 458.585 189.618 459.029 189.618 459.542C189.618 460.046 189.707 460.489 189.884 460.872C190.061 461.245 190.313 461.539 190.64 461.754C190.967 461.959 191.354 462.062 191.802 462.062ZM199.168 463.112C198.673 463.112 198.244 463.014 197.88 462.818C197.516 462.613 197.236 462.314 197.04 461.922C196.853 461.53 196.76 461.045 196.76 460.466V456.098H197.936V460.046C197.936 460.503 197.992 460.886 198.104 461.194C198.225 461.493 198.403 461.717 198.636 461.866C198.869 462.006 199.159 462.076 199.504 462.076C199.887 462.076 200.209 461.987 200.47 461.81C200.741 461.623 200.946 461.343 201.086 460.97C201.226 460.597 201.296 460.116 201.296 459.528V456.098H202.472V463H201.296V461.53H201.59C201.394 462.043 201.081 462.435 200.652 462.706C200.223 462.977 199.728 463.112 199.168 463.112ZM210.433 463.112C210.106 463.112 209.808 463.051 209.537 462.93C209.276 462.799 209.07 462.594 208.921 462.314C208.772 462.034 208.697 461.675 208.697 461.236V454.25L209.901 453.578V460.928C209.901 461.311 209.962 461.609 210.083 461.824C210.204 462.029 210.424 462.132 210.741 462.132C210.834 462.132 210.946 462.123 211.077 462.104C211.208 462.076 211.348 462.043 211.497 462.006V462.93C211.32 462.995 211.138 463.042 210.951 463.07C210.774 463.098 210.601 463.112 210.433 463.112ZM207.269 457.022V456.098H211.497V457.022H207.269ZM215.878 463.112C215.234 463.112 214.655 462.963 214.142 462.664C213.638 462.356 213.241 461.931 212.952 461.39C212.663 460.849 212.518 460.233 212.518 459.542C212.518 458.851 212.658 458.24 212.938 457.708C213.227 457.167 213.624 456.747 214.128 456.448C214.641 456.14 215.225 455.986 215.878 455.986C216.531 455.986 217.105 456.14 217.6 456.448C218.104 456.747 218.501 457.167 218.79 457.708C219.079 458.24 219.224 458.851 219.224 459.542C219.224 460.233 219.079 460.849 218.79 461.39C218.501 461.922 218.104 462.342 217.6 462.65C217.096 462.958 216.522 463.112 215.878 463.112ZM215.878 462.062C216.317 462.062 216.695 461.959 217.012 461.754C217.339 461.539 217.591 461.245 217.768 460.872C217.945 460.489 218.034 460.046 218.034 459.542C218.034 459.029 217.945 458.585 217.768 458.212C217.591 457.829 217.339 457.535 217.012 457.33C216.695 457.125 216.317 457.022 215.878 457.022C215.43 457.022 215.043 457.129 214.716 457.344C214.389 457.549 214.137 457.839 213.96 458.212C213.783 458.585 213.694 459.029 213.694 459.542C213.694 460.046 213.783 460.489 213.96 460.872C214.137 461.245 214.389 461.539 214.716 461.754C215.043 461.959 215.43 462.062 215.878 462.062ZM223.734 463.112C223.109 463.112 222.558 462.958 222.082 462.65C221.615 462.333 221.251 461.903 220.99 461.362C220.729 460.821 220.598 460.214 220.598 459.542C220.598 458.814 220.738 458.184 221.018 457.652C221.298 457.12 221.676 456.709 222.152 456.42C222.628 456.131 223.155 455.986 223.734 455.986C224.173 455.986 224.565 456.075 224.91 456.252C225.255 456.42 225.545 456.653 225.778 456.952C226.021 457.241 226.189 457.568 226.282 457.932L225.946 458.156V453.242H227.122V463H225.946V460.942L226.338 461.068C226.217 461.469 226.035 461.824 225.792 462.132C225.549 462.44 225.255 462.683 224.91 462.86C224.565 463.028 224.173 463.112 223.734 463.112ZM223.93 462.02C224.35 462.02 224.719 461.917 225.036 461.712C225.353 461.497 225.601 461.203 225.778 460.83C225.955 460.457 226.044 460.027 226.044 459.542C226.044 459.057 225.955 458.627 225.778 458.254C225.601 457.881 225.353 457.591 225.036 457.386C224.719 457.171 224.35 457.064 223.93 457.064C223.51 457.064 223.137 457.171 222.81 457.386C222.493 457.591 222.241 457.881 222.054 458.254C221.877 458.627 221.788 459.057 221.788 459.542C221.788 460.027 221.877 460.457 222.054 460.83C222.241 461.203 222.493 461.497 222.81 461.712C223.137 461.917 223.51 462.02 223.93 462.02ZM233.673 463L233.589 461.614V458.674C233.589 458.142 233.44 457.731 233.141 457.442C232.852 457.153 232.418 457.008 231.839 457.008C231.466 457.008 231.116 457.087 230.789 457.246C230.462 457.395 230.145 457.652 229.837 458.016L228.983 457.288C229.366 456.84 229.804 456.513 230.299 456.308C230.794 456.093 231.335 455.986 231.923 455.986C232.828 455.986 233.528 456.219 234.023 456.686C234.518 457.153 234.765 457.815 234.765 458.674V463H233.673ZM231.391 463.112C230.868 463.112 230.411 463.023 230.019 462.846C229.636 462.659 229.338 462.403 229.123 462.076C228.918 461.749 228.815 461.371 228.815 460.942C228.815 460.559 228.89 460.237 229.039 459.976C229.198 459.705 229.398 459.495 229.641 459.346C229.884 459.187 230.159 459.08 230.467 459.024C230.784 458.959 231.116 458.926 231.461 458.926H233.701V459.822H231.629C231.424 459.822 231.209 459.841 230.985 459.878C230.761 459.915 230.565 459.995 230.397 460.116C230.276 460.209 230.178 460.326 230.103 460.466C230.038 460.606 230.005 460.769 230.005 460.956C230.005 461.32 230.14 461.609 230.411 461.824C230.682 462.039 231.046 462.146 231.503 462.146C231.886 462.146 232.231 462.057 232.539 461.88C232.856 461.703 233.108 461.46 233.295 461.152C233.491 460.835 233.589 460.48 233.589 460.088L234.079 460.592C234.023 461.087 233.874 461.525 233.631 461.908C233.388 462.291 233.076 462.589 232.693 462.804C232.32 463.009 231.886 463.112 231.391 463.112ZM237.206 465.842L238.522 462.664L235.834 456.098H237.136L239.152 461.474L241.182 456.098H242.47L238.494 465.842H237.206Z" fill="black" fill-opacity="0.4"></path><g opacity="0.9"><g opacity="0.9"><g clip-path="url(#clip0_2251_19638)"><path d="M63.9997 501.333V506.667M61.333 504H66.6663M70.6663 504C70.6663 507.682 67.6816 510.667 63.9997 510.667C60.3178 510.667 57.333 507.682 57.333 504C57.333 500.318 60.3178 497.333 63.9997 497.333C67.6816 497.333 70.6663 500.318 70.6663 504Z" stroke="black" stroke-opacity="0.6" stroke-width="1.5" stroke-linecap="round" stroke-linejoin="round"></path></g></g><g opacity="0.9"><g clip-path="url(#clip1_2251_19638)"><path d="M94.667 510V505.333M94.667 502.667V498M100 510V504M100 501.333V498M105.334 510V506.667M105.334 504V498M92.667 505.333H96.667M98.0003 501.333H102M103.334 506.667H107.334" stroke="black" stroke-opacity="0.6" stroke-width="1.5" stroke-linecap="round" stroke-linejoin="round"></path></g></g><g opacity="0.9"><path d="M136 504L132.448 501.727C132.065 501.482 131.833 501.058 131.833 500.604V497.833H140.167V500.604C140.167 501.058 139.935 501.482 139.552 501.727L136 504ZM136 504L139.552 506.273C139.935 506.519 140.167 506.942 140.167 507.396V510.167H131.833V507.396C131.833 506.942 132.065 506.519 132.448 506.273L136 504ZM141.5 510.167H130.5M141.5 497.833H130.5" stroke="black" stroke-opacity="0.6" stroke-width="1.5" stroke-linecap="round" stroke-linejoin="round"></path></g></g><g clip-path="url(#clip2_2251_19638)"><path d="M395.28 501.991V500.588C395.28 500.47 395.324 500.381 395.426 500.322L398.222 498.698C398.603 498.476 399.056 498.373 399.525 498.373C401.281 498.373 402.394 499.746 402.394 501.208C402.394 501.312 402.394 501.43 402.379 501.548L399.481 499.835C399.305 499.732 399.13 499.732 398.954 499.835L395.28 501.991ZM401.808 507.456V504.103C401.808 503.896 401.72 503.749 401.545 503.645L397.871 501.489L399.071 500.795C399.173 500.736 399.261 500.736 399.364 500.795L402.16 502.419C402.965 502.892 403.506 503.896 403.506 504.871C403.506 505.993 402.848 507.028 401.808 507.456ZM394.416 504.502L393.216 503.793C393.114 503.734 393.07 503.645 393.07 503.527V500.278C393.07 498.698 394.27 497.501 395.895 497.501C396.51 497.501 397.08 497.708 397.563 498.077L394.68 499.761C394.504 499.865 394.416 500.012 394.416 500.219L394.416 504.502ZM397 506.008L395.28 505.034V502.966L397 501.991L398.72 502.966V505.034L397 506.008ZM398.105 510.498C397.49 510.498 396.919 510.292 396.436 509.922L399.32 508.239C399.495 508.135 399.583 507.988 399.583 507.781V503.498L400.798 504.207C400.901 504.266 400.945 504.354 400.945 504.472V507.722C400.945 509.302 399.73 510.498 398.105 510.498ZM394.636 507.205L391.84 505.58C391.035 505.108 390.493 504.103 390.493 503.129C390.493 501.991 391.167 500.972 392.206 500.544V503.911C392.206 504.118 392.294 504.266 392.469 504.369L396.129 506.511L394.929 507.205C394.826 507.264 394.738 507.264 394.636 507.205ZM394.475 509.627C392.821 509.627 391.606 508.372 391.606 506.821C391.606 506.703 391.621 506.584 391.635 506.466L394.519 508.15C394.694 508.253 394.87 508.253 395.046 508.15L398.72 506.009V507.412C398.72 507.53 398.676 507.618 398.573 507.678L395.777 509.302C395.397 509.524 394.943 509.627 394.475 509.627ZM398.105 511.384C399.876 511.384 401.354 510.114 401.691 508.431C403.33 508.002 404.384 506.451 404.384 504.871C404.384 503.837 403.945 502.833 403.155 502.109C403.228 501.799 403.272 501.489 403.272 501.179C403.272 499.067 401.574 497.487 399.613 497.487C399.218 497.487 398.837 497.546 398.456 497.679C397.798 497.029 396.89 496.615 395.895 496.615C394.124 496.615 392.645 497.885 392.308 499.569C390.669 499.997 389.615 501.548 389.615 503.128C389.615 504.162 390.054 505.167 390.845 505.89C390.772 506.2 390.728 506.511 390.728 506.821C390.728 508.933 392.426 510.513 394.387 510.513C394.782 510.513 395.163 510.454 395.543 510.321C396.202 510.971 397.11 511.384 398.105 511.384Z" fill="black" fill-opacity="0.6"></path></g><path d="M416.11 509.196C415.233 509.196 414.453 508.986 413.772 508.566C413.091 508.146 412.559 507.553 412.176 506.788C411.793 506.023 411.602 505.131 411.602 504.114C411.602 503.097 411.793 502.21 412.176 501.454C412.568 500.689 413.109 500.096 413.8 499.676C414.491 499.256 415.293 499.046 416.208 499.046C417.225 499.046 418.103 499.298 418.84 499.802C419.587 500.306 420.123 501.006 420.45 501.902L418.938 502.448C418.714 501.86 418.369 501.403 417.902 501.076C417.435 500.749 416.871 500.586 416.208 500.586C415.601 500.586 415.074 500.731 414.626 501.02C414.178 501.309 413.828 501.715 413.576 502.238C413.333 502.761 413.212 503.386 413.212 504.114C413.212 504.842 413.333 505.472 413.576 506.004C413.828 506.527 414.178 506.933 414.626 507.222C415.074 507.511 415.601 507.656 416.208 507.656C416.525 507.656 416.847 507.614 417.174 507.53C417.501 507.437 417.804 507.283 418.084 507.068C418.364 506.853 418.588 506.555 418.756 506.172C418.933 505.78 419.022 505.29 419.022 504.702V504.086L419.386 505.206H416.6V503.764H420.45V509H419.022L418.798 507.306L419.078 507.53C418.901 507.903 418.663 508.216 418.364 508.468C418.075 508.711 417.734 508.893 417.342 509.014C416.959 509.135 416.549 509.196 416.11 509.196ZM422.275 509V499.242H425.397C426.48 499.242 427.301 499.475 427.861 499.942C428.421 500.409 428.701 501.109 428.701 502.042C428.701 502.975 428.417 503.689 427.847 504.184C427.287 504.669 426.471 504.912 425.397 504.912H423.885V509H422.275ZM423.885 503.47H425.229C425.808 503.47 426.261 503.363 426.587 503.148C426.914 502.933 427.077 502.574 427.077 502.07C427.077 501.575 426.919 501.221 426.601 501.006C426.293 500.791 425.836 500.684 425.229 500.684H423.885V503.47ZM432.378 509V500.684H429.27V499.242H437.11V500.684H434.016V509H432.378ZM437.851 505.402V504.254H441.323V505.402H437.851ZM445.749 509.126C445.152 509.126 444.601 509 444.097 508.748C443.602 508.487 443.192 508.137 442.865 507.698C442.548 507.259 442.347 506.765 442.263 506.214L443.789 505.948C443.826 506.228 443.924 506.503 444.083 506.774C444.242 507.035 444.461 507.245 444.741 507.404C445.021 507.563 445.352 507.642 445.735 507.642C446.164 507.642 446.519 507.544 446.799 507.348C447.079 507.152 447.289 506.9 447.429 506.592C447.569 506.275 447.639 505.948 447.639 505.612C447.639 505.285 447.569 504.982 447.429 504.702C447.298 504.422 447.098 504.198 446.827 504.03C446.556 503.862 446.206 503.778 445.777 503.778C445.385 503.778 445.044 503.867 444.755 504.044C444.466 504.221 444.223 504.45 444.027 504.73L442.557 504.352L443.495 499.242H448.843V500.684H444.069L444.895 500.04L444.251 503.47L443.775 503.358C444.139 502.938 444.512 502.663 444.895 502.532C445.287 502.392 445.656 502.322 446.001 502.322C446.645 502.322 447.214 502.471 447.709 502.77C448.204 503.069 448.586 503.47 448.857 503.974C449.137 504.478 449.277 505.024 449.277 505.612C449.277 506.079 449.193 506.522 449.025 506.942C448.857 507.362 448.614 507.74 448.297 508.076C447.98 508.403 447.602 508.659 447.163 508.846C446.734 509.033 446.262 509.126 445.749 509.126Z" fill="black" fill-opacity="0.8"></path><path d="M457.333 502.667L459.528 504.862C459.789 505.122 460.211 505.122 460.471 504.862L462.666 502.667" stroke="black" stroke-opacity="0.4" stroke-width="1.5" stroke-linecap="round" stroke-linejoin="round"></path><path d="M480 500C480 493.373 485.373 488 492 488H500C506.627 488 512 493.373 512 500V508C512 514.627 506.627 520 500 520H492C485.373 520 480 514.627 480 508V500Z" fill="#1C1C1C"></path><path d="M496 498.667V509.333M496 498.667L492 502.667M496 498.667L500 502.667" stroke="white" stroke-width="1.5" stroke-linecap="round" stroke-linejoin="round"></path></g><defs><filter id="filter0_dd_2251_19638" x="32" y="366" width="496" height="172" filterUnits="userSpaceOnUse" color-interpolation-filters="sRGB"><feFlood flood-opacity="0" result="BackgroundImageFix"></feFlood><feColorMatrix in="SourceAlpha" type="matrix" values="0 0 0 0 0 0 0 0 0 0 0 0 0 0 0 0 0 0 127 0" result="hardAlpha"></feColorMatrix><feMorphology radius="1" operator="dilate" in="SourceAlpha" result="effect1_dropShadow_2251_19638"></feMorphology><feOffset></feOffset><feGaussianBlur stdDeviation="0.5"></feGaussianBlur><feComposite in2="hardAlpha" operator="out"></feComposite><feColorMatrix type="matrix" values="0 0 0 0 0 0 0 0 0 0 0 0 0 0 0 0 0 0 0.05 0"></feColorMatrix><feBlend mode="normal" in2="BackgroundImageFix" result="effect1_dropShadow_2251_19638"></feBlend><feColorMatrix in="SourceAlpha" type="matrix" values="0 0 0 0 0 0 0 0 0 0 0 0 0 0 0 0 0 0 127 0" result="hardAlpha"></feColorMatrix><feOffset dy="2"></feOffset><feGaussianBlur stdDeviation="4"></feGaussianBlur><feComposite in2="hardAlpha" operator="out"></feComposite><feColorMatrix type="matrix" values="0 0 0 0 0 0 0 0 0 0 0 0 0 0 0 0 0 0 0.1 0"></feColorMatrix><feBlend mode="normal" in2="effect1_dropShadow_2251_19638" result="effect2_dropShadow_2251_19638"></feBlend><feBlend mode="normal" in="SourceGraphic" in2="effect2_dropShadow_2251_19638" result="shape"></feBlend></filter><filter id="filter1_dd_2251_19638" x="20" y="352" width="172" height="100" filterUnits="userSpaceOnUse" color-interpolation-filters="sRGB"><feFlood flood-opacity="0" result="BackgroundImageFix"></feFlood><feColorMatrix in="SourceAlpha" type="matrix" values="0 0 0 0 0 0 0 0 0 0 0 0 0 0 0 0 0 0 127 0" result="hardAlpha"></feColorMatrix><feMorphology radius="1" operator="dilate" in="SourceAlpha" result="effect1_dropShadow_2251_19638"></feMorphology><feOffset></feOffset><feGaussianBlur stdDeviation="6"></feGaussianBlur><feComposite in2="hardAlpha" operator="out"></feComposite><feColorMatrix type="matrix" values="0 0 0 0 0.160784 0 0 0 0 0.431373 0 0 0 0 0.976471 0 0 0 1 0"></feColorMatrix><feBlend mode="normal" in2="BackgroundImageFix" result="effect1_dropShadow_2251_19638"></feBlend><feColorMatrix in="SourceAlpha" type="matrix" values="0 0 0 0 0 0 0 0 0 0 0 0 0 0 0 0 0 0 127 0" result="hardAlpha"></feColorMatrix><feOffset></feOffset><feGaussianBlur stdDeviation="12"></feGaussianBlur><feComposite in2="hardAlpha" operator="out"></feComposite><feColorMatrix type="matrix" values="0 0 0 0 0.00189903 0 0 0 0 0.977847 0 0 0 0 0.975819 0 0 0 0.3 0"></feColorMatrix><feBlend mode="normal" in2="effect1_dropShadow_2251_19638" result="effect2_dropShadow_2251_19638"></feBlend><feBlend mode="normal" in="SourceGraphic" in2="effect2_dropShadow_2251_19638" result="shape"></feBlend></filter><clipPath id="clip0_2251_19638"><rect width="16" height="16" fill="white" transform="translate(56 496)"></rect></clipPath><clipPath id="clip1_2251_19638"><rect width="16" height="16" fill="white" transform="translate(92 496)"></rect></clipPath><clipPath id="clip2_2251_19638"><rect width="16" height="16" fill="white" transform="translate(389 496)"></rect></clipPath></defs></svg>