<svg width="720" height="150" viewBox="0 0 720 150" fill="none" xmlns="http://www.w3.org/2000/svg">
<path d="M21.5163 126.923V23.7692H60.0241C67.0423 23.7692 73.2293 25.0615 78.5853 27.6462C84.0337 30.1385 88.2815 33.8308 91.3289 38.7231C94.3763 43.5231 95.9 49.3846 95.9 56.3077C95.9 63.1385 94.3301 69 91.1904 73.8923C88.143 78.6923 83.9413 82.3846 78.5853 84.9692C73.2293 87.5538 67.0423 88.8462 60.0241 88.8462H40.3546V126.923H21.5163ZM40.3546 72.2308H60.3011C63.7178 72.2308 66.6729 71.5846 69.1662 70.2923C71.6595 68.9077 73.5987 67.0154 74.9839 64.6154C76.3691 62.2154 77.0616 59.4461 77.0616 56.3077C77.0616 53.0769 76.3691 50.3077 74.9839 48C73.5987 45.6 71.6595 43.7538 69.1662 42.4615C66.6729 41.0769 63.7178 40.3846 60.3011 40.3846H40.3546V72.2308Z" fill="#0057FF"/>
<path d="M102.886 126.923V51.6H119.924V68.3538L118.539 65.8615C120.293 60.2308 123.018 56.3077 126.711 54.0923C130.497 51.8769 135.022 50.7692 140.286 50.7692H144.719V66.8308H138.208C133.037 66.8308 128.881 68.4462 125.742 71.6769C122.602 74.8154 121.032 79.2462 121.032 84.9692V126.923H102.886Z" fill="#0057FF"/>
<path d="M147.769 126.923V51.6H165.915V126.923H147.769ZM147.769 43.1538V23.7692H165.915V43.1538H147.769Z" fill="#0057FF"/>
<path d="M198.46 126.923L168.817 51.6H188.625L210.095 110.862H202.754L224.363 51.6H244.171L214.528 126.923H198.46Z" fill="#0057FF"/>
<path d="M267.424 128.585C262.16 128.585 257.589 127.708 253.711 125.954C249.832 124.2 246.831 121.708 244.707 118.477C242.583 115.154 241.521 111.323 241.521 106.985C241.521 102.831 242.445 99.1385 244.292 95.9077C246.139 92.5846 249.001 89.8154 252.88 87.6C256.758 85.3846 261.653 83.8154 267.563 82.8923L292.219 78.8769V92.7231L271.026 96.3231C267.424 96.9692 264.746 98.1231 262.992 99.7846C261.237 101.446 260.36 103.615 260.36 106.292C260.36 108.877 261.329 110.954 263.269 112.523C265.3 114 267.793 114.738 270.749 114.738C274.535 114.738 277.859 113.954 280.722 112.385C283.677 110.723 285.939 108.462 287.509 105.6C289.171 102.738 290.002 99.6 290.002 96.1846V76.8C290.002 73.5692 288.71 70.8923 286.124 68.7692C283.631 66.5538 280.306 65.4461 276.151 65.4461C272.272 65.4461 268.809 66.5077 265.762 68.6308C262.807 70.6615 260.637 73.3846 259.252 76.8L244.43 69.6C245.908 65.6308 248.216 62.2154 251.356 59.3538C254.588 56.4 258.374 54.0923 262.715 52.4308C267.055 50.7692 271.764 49.9385 276.843 49.9385C283.03 49.9385 288.479 51.0923 293.188 53.4C297.898 55.6154 301.545 58.7538 304.131 62.8154C306.809 66.7846 308.148 71.4462 308.148 76.8V126.923H290.972V114.046L294.85 113.769C292.911 117 290.603 119.723 287.925 121.938C285.247 124.062 282.199 125.723 278.783 126.923C275.366 128.031 271.58 128.585 267.424 128.585Z" fill="#0057FF"/>
<path d="M350.993 127.754C342.497 127.754 335.895 125.446 331.185 120.831C326.568 116.123 324.259 109.523 324.259 101.031V67.8H311.239V51.6H312.624C316.318 51.6 319.18 50.6308 321.212 48.6923C323.244 46.7539 324.259 43.9385 324.259 40.2462V34.4308H342.405V51.6H359.72V67.8H342.405V100.062C342.405 102.554 342.821 104.677 343.652 106.431C344.575 108.185 345.96 109.523 347.807 110.446C349.746 111.369 352.194 111.831 355.149 111.831C355.795 111.831 356.534 111.785 357.365 111.692C358.288 111.6 359.166 111.508 359.997 111.415V126.923C358.704 127.108 357.226 127.292 355.564 127.477C353.902 127.662 352.378 127.754 350.993 127.754Z" fill="#0057FF"/>
<path d="M401.996 128.585C394.239 128.585 387.451 126.831 381.634 123.323C375.816 119.815 371.291 115.062 368.059 109.062C364.827 103.062 363.211 96.4154 363.211 89.1231C363.211 81.5539 364.827 74.8615 368.059 69.0462C371.383 63.1385 375.862 58.4769 381.495 55.0615C387.22 51.6462 393.592 49.9385 400.61 49.9385C406.52 49.9385 411.692 50.9077 416.124 52.8462C420.649 54.7846 424.481 57.4615 427.621 60.8769C430.761 64.2923 433.162 68.2154 434.824 72.6462C436.486 76.9846 437.317 81.6923 437.317 86.7692C437.317 88.0615 437.225 89.4 437.04 90.7846C436.948 92.1692 436.717 93.3692 436.348 94.3846H378.171V80.5385H426.098L417.509 87.0462C418.341 82.8 418.11 79.0154 416.817 75.6923C415.616 72.3692 413.585 69.7385 410.722 67.8C407.952 65.8615 404.581 64.8923 400.61 64.8923C396.824 64.8923 393.454 65.8615 390.499 67.8C387.544 69.6462 385.281 72.4154 383.711 76.1077C382.234 79.7077 381.68 84.0923 382.049 89.2615C381.68 93.8769 382.28 97.9846 383.85 101.585C385.512 105.092 387.913 107.815 391.053 109.754C394.285 111.692 397.979 112.662 402.134 112.662C406.29 112.662 409.799 111.785 412.661 110.031C415.616 108.277 417.925 105.923 419.587 102.969L434.27 110.169C432.793 113.769 430.484 116.954 427.344 119.723C424.204 122.492 420.465 124.662 416.124 126.231C411.876 127.8 407.167 128.585 401.996 128.585Z" fill="#0057FF"/>
<path d="M463.364 126.923V23.7692H506.858C513.692 23.7692 519.51 24.9692 524.312 27.3692C529.206 29.6769 532.946 33 535.531 37.3385C538.209 41.5846 539.548 46.7538 539.548 52.8462C539.548 57.5538 538.256 61.9846 535.67 66.1385C533.177 70.2 529.16 73.5692 523.619 76.2462V67.5231C528.698 69.4615 532.715 71.8615 535.67 74.7231C538.625 77.5846 540.703 80.7692 541.903 84.2769C543.104 87.7846 543.704 91.4769 543.704 95.3538C543.704 105.231 540.426 112.985 533.869 118.615C527.405 124.154 518.401 126.923 506.858 126.923H463.364ZM482.202 110.308H508.798C513.692 110.308 517.57 108.969 520.433 106.292C523.388 103.523 524.866 99.8769 524.866 95.3538C524.866 90.8308 523.388 87.1846 520.433 84.4154C517.57 81.6462 513.692 80.2615 508.798 80.2615H482.202V110.308ZM482.202 63.7846H507.828C511.706 63.7846 514.8 62.6769 517.109 60.4615C519.417 58.1538 520.572 55.2 520.572 51.6C520.572 48 519.417 45.1385 517.109 43.0154C514.8 40.8923 511.706 39.8308 507.828 39.8308H482.202V63.7846Z" fill="black"/>
<path d="M587.532 128.585C580.144 128.585 573.403 126.877 567.308 123.462C561.306 120.046 556.504 115.385 552.902 109.477C549.393 103.569 547.639 96.8308 547.639 89.2615C547.639 81.6923 549.393 74.9538 552.902 69.0462C556.504 63.1385 561.306 58.4769 567.308 55.0615C573.311 51.6462 580.052 49.9385 587.532 49.9385C594.919 49.9385 601.614 51.6462 607.617 55.0615C613.619 58.4769 618.375 63.1385 621.884 69.0462C625.485 74.8615 627.286 81.6 627.286 89.2615C627.286 96.8308 625.485 103.569 621.884 109.477C618.282 115.385 613.48 120.046 607.478 123.462C601.476 126.877 594.827 128.585 587.532 128.585ZM587.532 111.969C591.595 111.969 595.15 111 598.197 109.062C601.337 107.123 603.784 104.446 605.539 101.031C607.386 97.5231 608.309 93.6 608.309 89.2615C608.309 84.8308 607.386 80.9538 605.539 77.6308C603.784 74.2154 601.337 71.5385 598.197 69.6C595.15 67.5692 591.595 66.5538 587.532 66.5538C583.376 66.5538 579.728 67.5692 576.589 69.6C573.449 71.5385 570.956 74.2154 569.109 77.6308C567.354 80.9538 566.477 84.8308 566.477 89.2615C566.477 93.6 567.354 97.5231 569.109 101.031C570.956 104.446 573.449 107.123 576.589 109.062C579.728 111 583.376 111.969 587.532 111.969Z" fill="black"/>
<path d="M624.628 126.923L650.946 89.1231L624.49 51.6H645.821L666.46 82.0615H656.903L677.542 51.6H698.735L672.417 89.1231L698.596 126.923H677.403L657.041 96.6H666.322L645.96 126.923H624.628Z" fill="black"/>
<path d="M709.9 118.75L720 112.5V150H709.9V118.75Z" fill="black"/>
<path d="M687.054 139.904L682.485 150H709.9V139.904H687.054Z" fill="black"/>
<path d="M10.1002 32.9327L0 37.5V10.0962H10.1002V32.9327Z" fill="black"/>
<path d="M31.2625 10.0962L37.515 0H6.88022e-07L0 10.0962L31.2625 10.0962Z" fill="black"/>
</svg>
