<svg width="39" height="39" viewBox="0 0 39 39" fill="none" xmlns="http://www.w3.org/2000/svg">
<path d="M30.5961 30.5961C28.6925 32.5 25.6282 32.5 19.5 32.5C13.3717 32.5 10.3076 32.5 8.4038 30.5961C6.5 28.6925 6.5 25.6282 6.5 19.5C6.5 13.3717 6.5 10.3076 8.4038 8.4038C10.3076 6.5 13.3717 6.5 19.5 6.5C25.6282 6.5 28.6925 6.5 30.5961 8.4038C32.5 10.3076 32.5 13.3717 32.5 19.5C32.5 25.6282 32.5 28.6925 30.5961 30.5961Z" stroke="black" stroke-width="2.5" stroke-linecap="round" stroke-linejoin="round"/>
<path d="M13 3.25V6.5M26 3.25V6.5M19.5 3.25V6.5M13 32.5V35.75M19.5 32.5V35.75M26 32.5V35.75M35.75 26H32.5M6.5 13H3.25M6.5 26H3.25M6.5 19.5H3.25M35.75 13H32.5M35.75 19.5H32.5" stroke="black" stroke-width="2.5" stroke-linecap="round" stroke-linejoin="round"/>
<path d="M18.6553 12.7756C18.9454 11.9915 20.0546 11.9915 20.3447 12.7756L21.6453 16.2903C21.8278 16.7835 22.2165 17.1722 22.7097 17.3547L26.2244 18.6553C27.0085 18.9454 27.0085 20.0546 26.2244 20.3447L22.7097 21.6453C22.2165 21.8278 21.8278 22.2165 21.6453 22.7097L20.3447 26.2244C20.0546 27.0085 18.9454 27.0085 18.6553 26.2244L17.3547 22.7097C17.1722 22.2165 16.7835 21.8278 16.2903 21.6453L12.7756 20.3447C11.9915 20.0546 11.9915 18.9454 12.7756 18.6553L16.2903 17.3547C16.7835 17.1722 17.1722 16.7835 17.3547 16.2903L18.6553 12.7756Z" stroke="#0057FF" stroke-width="2.5"/>
</svg>
