<svg width="59" height="59" viewBox="0 0 59 59" fill="none" xmlns="http://www.w3.org/2000/svg">
<path d="M51.625 26.2055V49.1663C51.625 51.1223 50.848 52.9982 49.4649 54.3813C48.0818 55.7643 46.206 56.5413 44.25 56.5413H14.75C12.794 56.5413 10.9182 55.7643 9.53509 54.3813C8.15201 52.9982 7.375 51.1223 7.375 49.1663V9.83301C7.375 7.87704 8.15201 6.00118 9.53509 4.6181C10.9182 3.23502 12.794 2.45801 14.75 2.45801H27.8775C29.1692 2.457 30.4485 2.71049 31.6422 3.204C32.8359 3.69752 33.9207 4.42139 34.8346 5.33426L48.7487 19.2484C49.6616 20.1623 50.3855 21.2471 50.879 22.4408C51.3725 23.6345 51.626 24.9138 51.625 26.2055Z" fill="white"/>
<path d="M51.625 26.2055V36.8747C51.625 38.8306 50.848 40.7065 49.4649 42.0896C48.0818 43.4727 46.206 44.2497 44.25 44.2497H14.75C12.794 44.2497 10.9182 43.4727 9.53509 42.0896C8.15201 40.7065 7.375 38.8306 7.375 36.8747V9.83301C7.375 7.87704 8.15201 6.00118 9.53509 4.6181C10.9182 3.23502 12.794 2.45801 14.75 2.45801H27.8775C29.1692 2.457 30.4485 2.71049 31.6422 3.204C32.8359 3.69752 33.9207 4.42139 34.8346 5.33426L48.7487 19.2484C49.6616 20.1623 50.3855 21.2471 50.879 22.4408C51.3725 23.6345 51.626 24.9138 51.625 26.2055Z" fill="white"/>
<path d="M50.7402 22.1244H39.3335C37.3775 22.1244 35.5017 21.3474 34.1186 19.9644C32.7355 18.5813 31.9585 16.7054 31.9585 14.7494V3.34277C33.0263 3.83331 33.9998 4.50726 34.8347 5.33402L48.7489 19.2482C49.5757 20.0832 50.2496 21.0567 50.7402 22.1244Z" fill="black"/>
<path d="M50.4817 17.5082L36.5774 3.599C35.5644 2.60233 34.3856 1.7896 33.0939 1.19721C33.0079 1.15296 32.9317 1.09888 32.8481 1.062C31.2859 0.365431 29.5952 0.00366995 27.8847 0L14.7498 0C12.1419 0 9.64073 1.03601 7.79662 2.88012C5.95251 4.72422 4.9165 7.22537 4.9165 9.83333V49.1667C4.9165 51.7746 5.95251 54.2758 7.79662 56.1199C9.64073 57.964 12.1419 59 14.7498 59H44.2498C46.8578 59 49.3589 57.964 51.203 56.1199C53.0472 54.2758 54.0832 51.7746 54.0832 49.1667V26.1985C54.0789 24.4902 53.7162 22.8018 53.0187 21.2425C52.9792 21.1576 52.934 21.0754 52.8835 20.9966C52.2918 19.703 51.479 18.5225 50.4817 17.5082ZM45.6904 19.6667H39.3332C38.0292 19.6667 36.7786 19.1487 35.8566 18.2266C34.9345 17.3046 34.4165 16.054 34.4165 14.75V8.39275L45.6904 19.6667ZM49.1665 49.1667C49.1665 50.4706 48.6485 51.7212 47.7264 52.6433C46.8044 53.5653 45.5538 54.0833 44.2498 54.0833H14.7498C13.4459 54.0833 12.1953 53.5653 11.2732 52.6433C10.3512 51.7212 9.83317 50.4706 9.83317 49.1667V9.83333C9.83317 8.52935 10.3512 7.27878 11.2732 6.35672C12.1953 5.43467 13.4459 4.91667 14.7498 4.91667H27.8847C28.4285 4.92084 28.9702 4.98515 29.4998 5.10842V14.75C29.4998 17.358 30.5358 19.8591 32.38 21.7032C34.2241 23.5473 36.7252 24.5833 39.3332 24.5833H48.9698C49.0957 25.1126 49.1617 25.6544 49.1665 26.1985V49.1667Z" fill="black"/>
<path d="M31.9583 36.875H27.0417V31.9583C27.0417 31.3063 26.7827 30.6811 26.3216 30.22C25.8606 29.759 25.2353 29.5 24.5833 29.5C23.9313 29.5 23.3061 29.759 22.845 30.22C22.384 30.6811 22.125 31.3063 22.125 31.9583V36.875H17.2083C16.5563 36.875 15.9311 37.134 15.47 37.595C15.009 38.0561 14.75 38.6813 14.75 39.3333C14.75 39.9853 15.009 40.6106 15.47 41.0716C15.9311 41.5327 16.5563 41.7917 17.2083 41.7917H22.125V46.7083C22.125 47.3603 22.384 47.9856 22.845 48.4466C23.3061 48.9077 23.9313 49.1667 24.5833 49.1667C25.2353 49.1667 25.8606 48.9077 26.3216 48.4466C26.7827 47.9856 27.0417 47.3603 27.0417 46.7083V41.7917H31.9583C32.6103 41.7917 33.2356 41.5327 33.6966 41.0716C34.1577 40.6106 34.4167 39.9853 34.4167 39.3333C34.4167 38.6813 34.1577 38.0561 33.6966 37.595C33.2356 37.134 32.6103 36.875 31.9583 36.875Z" fill="black"/>
</svg>
