<svg width="65" height="65" viewBox="0 0 65 65" fill="none" xmlns="http://www.w3.org/2000/svg">
<path d="M21.4648 0.801758C23.9574 -0.0659019 26.7123 0.991676 27.9834 3.30469C28.8839 4.94346 30.598 5.98047 32.5 5.98047C34.402 5.98047 36.1161 4.94346 37.0166 3.30469C38.2877 0.991674 41.0426 -0.065902 43.5352 0.801758C44.7571 1.22711 45.9521 1.72216 47.1143 2.28516C49.488 3.43509 50.6862 6.13022 49.9502 8.66309C49.4286 10.4584 49.9073 12.4034 51.252 13.748C52.5966 15.0927 54.5416 15.5714 56.3369 15.0498C58.8698 14.3138 61.5649 15.512 62.7148 17.8857C63.2778 19.0479 63.7729 20.2429 64.1982 21.4648C65.0659 23.9574 64.0083 26.7123 61.6953 27.9834C60.0565 28.8839 59.0195 30.598 59.0195 32.5C59.0195 34.402 60.0565 36.1161 61.6953 37.0166C64.0083 38.2877 65.0659 41.0426 64.1982 43.5352C63.7729 44.7571 63.2778 45.9521 62.7148 47.1143C61.5649 49.488 58.8698 50.6862 56.3369 49.9502C54.5416 49.4286 52.5966 49.9073 51.252 51.252C49.9073 52.5966 49.4286 54.5416 49.9502 56.3369C50.6862 58.8698 49.488 61.5649 47.1143 62.7148C45.9521 63.2778 44.7571 63.7729 43.5352 64.1982C41.0426 65.0659 38.2877 64.0083 37.0166 61.6953C36.1161 60.0565 34.402 59.0195 32.5 59.0195C30.598 59.0195 28.8839 60.0565 27.9834 61.6953C26.7123 64.0083 23.9574 65.0659 21.4648 64.1982C20.2429 63.7729 19.0479 63.2778 17.8857 62.7148C15.512 61.5649 14.3138 58.8698 15.0498 56.3369C15.5714 54.5416 15.0927 52.5966 13.748 51.252C12.4034 49.9073 10.4584 49.4286 8.66309 49.9502C6.13022 50.6862 3.43509 49.488 2.28516 47.1143C1.72216 45.9521 1.22711 44.7571 0.801758 43.5352C-0.065902 41.0426 0.991674 38.2877 3.30469 37.0166C4.94346 36.1161 5.98047 34.402 5.98047 32.5C5.98047 30.598 4.94346 28.8839 3.30469 27.9834C0.991676 26.7123 -0.0659019 23.9574 0.801758 21.4648C1.22711 20.2429 1.72216 19.0479 2.28516 17.8857C3.43509 15.512 6.13022 14.3138 8.66309 15.0498C10.4584 15.5714 12.4034 15.0927 13.748 13.748C15.0927 12.4034 15.5714 10.4584 15.0498 8.66309C14.3138 6.13022 15.512 3.43509 17.8857 2.28516C19.0479 1.72216 20.2429 1.22711 21.4648 0.801758ZM41.3184 5.66895C39.608 8.78132 36.2999 10.8887 32.5 10.8887C28.7001 10.8887 25.392 8.78132 23.6816 5.66895L23.4775 5.29883L23.0781 5.4375C22.0319 5.80171 21.0133 6.22502 20.0264 6.70312L19.6455 6.8877L19.7637 7.29297C20.7546 10.7029 19.9054 14.5321 17.2188 17.2188C14.5321 19.9054 10.7029 20.7546 7.29297 19.7637L6.8877 19.6455L6.70312 20.0264C6.22502 21.0133 5.80171 22.0319 5.4375 23.0781L5.29883 23.4775L5.66895 23.6816C8.78132 25.392 10.8887 28.7001 10.8887 32.5C10.8887 36.2999 8.78132 39.608 5.66895 41.3184L5.29883 41.5225L5.4375 41.9219C5.80171 42.9681 6.22502 43.9867 6.70312 44.9736L6.8877 45.3545L7.29297 45.2363C10.7029 44.2454 14.5321 45.0946 17.2188 47.7812C19.9054 50.4679 20.7546 54.2971 19.7637 57.707L19.6455 58.1123L20.0264 58.2969C21.0133 58.775 22.0319 59.1983 23.0781 59.5625L23.4775 59.7012L23.6816 59.3311C25.392 56.2187 28.7001 54.1113 32.5 54.1113C36.2999 54.1113 39.608 56.2187 41.3184 59.3311L41.5225 59.7012L41.9219 59.5625C42.9681 59.1983 43.9867 58.775 44.9736 58.2969L45.3545 58.1123L45.2363 57.707C44.2454 54.2971 45.0946 50.4679 47.7812 47.7812C50.4679 45.0946 54.2971 44.2454 57.707 45.2363L58.1123 45.3545L58.2969 44.9736C58.775 43.9867 59.1983 42.9681 59.5625 41.9219L59.7012 41.5225L59.3311 41.3184C56.2187 39.608 54.1113 36.2999 54.1113 32.5C54.1113 28.7001 56.2187 25.392 59.3311 23.6816L59.7012 23.4775L59.5625 23.0781C59.1983 22.0319 58.775 21.0133 58.2969 20.0264L58.1123 19.6455L57.707 19.7637C54.2971 20.7546 50.4679 19.9054 47.7812 17.2188C45.0946 14.5321 44.2454 10.7029 45.2363 7.29297L45.3545 6.8877L44.9736 6.70312C43.9867 6.22502 42.9681 5.80171 41.9219 5.4375L41.5225 5.29883L41.3184 5.66895Z" fill="#E77957" stroke="#E77957"/>
</svg>
