<svg width="49" height="54" viewBox="0 0 49 54" fill="none" xmlns="http://www.w3.org/2000/svg">
<path d="M2 52C2 42.2042 9.24364 34.1003 18.6667 32.7525M46.0906 35.8994C45.9011 35.9108 45.7103 35.9167 45.5186 35.9167C42.6728 35.9167 40.0769 34.6456 38.1111 32.5556C36.1453 34.6456 33.5494 35.9164 30.7036 35.9164C30.5119 35.9164 30.3211 35.9106 30.1317 35.8992C29.9006 36.9592 29.7778 38.0708 29.7778 39.2164C29.7778 45.3669 33.3189 50.5347 38.1111 52C42.9033 50.5347 46.4444 45.3669 46.4444 39.2164C46.4444 38.0708 46.3217 36.9592 46.0906 35.8994ZM32.5556 13.1111C32.5556 19.2476 27.5808 24.2222 21.4444 24.2222C15.3079 24.2222 10.3333 19.2476 10.3333 13.1111C10.3333 6.97461 15.3079 2 21.4444 2C27.5808 2 32.5556 6.97461 32.5556 13.1111Z" stroke="black" stroke-width="4" stroke-linecap="round" stroke-linejoin="round"/>
</svg>
